<svg
  viewBox="0 0 280 200"
  xmlns="http://www.w3.org/2000/svg"
  preserveAspectRatio="xMinYMin meet"
  style="overflow:visible;"
>
  <g transform="translate(40, 90)">
    <line x1="0" x2="200" y1="40" y2="40" stroke="black" stroke-width="1"/><line x1="0" x2="200" y1="50" y2="50" stroke="black" stroke-width="1"/><line x1="0" x2="200" y1="60" y2="60" stroke="black" stroke-width="1"/><line x1="0" x2="200" y1="70" y2="70" stroke="black" stroke-width="1"/><line x1="0" x2="200" y1="80" y2="80" stroke="black" stroke-width="1"/>
    <text x="2" y="50" font-size="40" font-family="Bravura, serif, Arial Unicode MS, serif" fill="#222" stroke="none">𝄢</text>
    <text x="83" y="90" font-size="35" text-anchor="middle" font-family="Bravura, serif, Arial Unicode MS, serif" fill="#222" stroke="none">𝄯</text><ellipse cx="100" cy="90" rx="8" ry="6" fill="#111" stroke="none"/><line x1="88" x2="112" y1="90" y2="90" stroke="black" stroke-width="1"/>
<ellipse cx="115" cy="85" rx="8" ry="6" fill="#111" stroke="none"/>
<ellipse cx="100" cy="80" rx="8" ry="6" fill="#111" stroke="none"/>
<text x="71" y="75" font-size="35" text-anchor="middle" font-family="Bravura, serif, Arial Unicode MS, serif" fill="#222" stroke="none">♭</text><ellipse cx="115" cy="75" rx="8" ry="6" fill="#111" stroke="none"/>
<text x="59" y="75" font-size="35" text-anchor="middle" font-family="Bravura, serif, Arial Unicode MS, serif" fill="#222" stroke="none">♯</text><ellipse cx="100" cy="75" rx="8" ry="6" fill="#111" stroke="none"/>
<ellipse cx="100" cy="65" rx="8" ry="6" fill="#111" stroke="none"/>
<text x="47" y="60" font-size="35" text-anchor="middle" font-family="Bravura, serif, Arial Unicode MS, serif" fill="#222" stroke="none">♯</text><ellipse cx="115" cy="60" rx="8" ry="6" fill="#111" stroke="none"/>
<ellipse cx="100" cy="50" rx="8" ry="6" fill="#111" stroke="none"/>
<text x="83" y="45" font-size="35" text-anchor="middle" font-family="Bravura, serif, Arial Unicode MS, serif" fill="#222" stroke="none">♯</text><ellipse cx="115" cy="45" rx="8" ry="6" fill="#111" stroke="none"/>
<text x="71" y="35" font-size="35" text-anchor="middle" font-family="Bravura, serif, Arial Unicode MS, serif" fill="#222" stroke="none">♭</text><ellipse cx="100" cy="35" rx="8" ry="6" fill="#111" stroke="none"/>
<ellipse cx="115" cy="30" rx="8" ry="6" fill="#111" stroke="none"/><line x1="103" x2="127" y1="30" y2="30" stroke="black" stroke-width="1"/>
<text x="59" y="25" font-size="35" text-anchor="middle" font-family="Bravura, serif, Arial Unicode MS, serif" fill="#222" stroke="none">♭</text><ellipse cx="100" cy="25" rx="8" ry="6" fill="#111" stroke="none"/><line x1="88" x2="112" y1="30" y2="30" stroke="black" stroke-width="1"/>
<ellipse cx="115" cy="20" rx="8" ry="6" fill="#111" stroke="none"/><line x1="103" x2="127" y1="30" y2="30" stroke="black" stroke-width="1"/><line x1="103" x2="127" y1="20" y2="20" stroke="black" stroke-width="1"/>
<text x="47" y="15" font-size="35" text-anchor="middle" font-family="Bravura, serif, Arial Unicode MS, serif" fill="#222" stroke="none">♯</text><ellipse cx="100" cy="15" rx="8" ry="6" fill="#111" stroke="none"/><line x1="88" x2="112" y1="30" y2="30" stroke="black" stroke-width="1"/><line x1="88" x2="112" y1="20" y2="20" stroke="black" stroke-width="1"/>
<ellipse cx="100" cy="5" rx="8" ry="6" fill="#111" stroke="none"/><line x1="88" x2="112" y1="30" y2="30" stroke="black" stroke-width="1"/><line x1="88" x2="112" y1="20" y2="20" stroke="black" stroke-width="1"/><line x1="88" x2="112" y1="10" y2="10" stroke="black" stroke-width="1"/>
  </g>
</svg>